<svg width="375" height="812" viewBox="0 0 375 812" fill="none" xmlns="http://www.w3.org/2000/svg">
<rect width="375" height="812" fill="white"/>
<rect x="121" y="799" width="134" height="5" rx="2.5" fill="black"/>
<path opacity="0.35" d="M336.5 20C336.5 18.8034 337.47 17.8334 338.667 17.8334H355.333C356.53 17.8334 357.5 18.8034 357.5 20V26C357.5 27.1967 356.53 28.1667 355.333 28.1667H338.667C337.47 28.1667 336.5 27.1967 336.5 26V20Z" stroke="black"/>
<path opacity="0.4" d="M359 21V25C359.805 24.6613 360.328 23.8732 360.328 23C360.328 22.1269 359.805 21.3388 359 21Z" fill="black"/>
<path d="M338 20.6667C338 19.9303 338.597 19.3334 339.333 19.3334H354.667C355.403 19.3334 356 19.9303 356 20.6667V25.3334C356 26.0698 355.403 26.6667 354.667 26.6667H339.333C338.597 26.6667 338 26.0698 338 25.3334V20.6667Z" fill="black"/>
<path fill-rule="evenodd" clip-rule="evenodd" d="M323.33 19.608C325.546 19.6081 327.677 20.4596 329.283 21.9863C329.404 22.1042 329.597 22.1027 329.716 21.983L330.872 20.8163C330.933 20.7556 330.966 20.6734 330.966 20.5878C330.965 20.5022 330.931 20.4204 330.87 20.3603C326.655 16.3208 320.005 16.3208 315.79 20.3603C315.729 20.4203 315.694 20.5021 315.693 20.5877C315.693 20.6733 315.726 20.7556 315.787 20.8163L316.943 21.983C317.062 22.1029 317.255 22.1044 317.376 21.9863C318.982 20.4595 321.114 19.608 323.33 19.608ZM323.33 23.4037C324.547 23.4036 325.721 23.8561 326.624 24.6733C326.746 24.7893 326.938 24.7868 327.057 24.6677L328.212 23.501C328.273 23.4398 328.307 23.3568 328.306 23.2705C328.305 23.1843 328.269 23.102 328.207 23.042C325.459 20.4856 321.203 20.4856 318.455 23.042C318.393 23.102 318.357 23.1843 318.357 23.2706C318.356 23.3569 318.39 23.4399 318.451 23.501L319.605 24.6677C319.724 24.7868 319.916 24.7893 320.038 24.6733C320.94 23.8567 322.113 23.4042 323.33 23.4037ZM325.643 25.9575C325.645 26.044 325.611 26.1274 325.549 26.188L323.552 28.2037C323.493 28.2629 323.413 28.2963 323.33 28.2963C323.247 28.2963 323.167 28.2629 323.108 28.2037L321.111 26.188C321.049 26.1274 321.015 26.0439 321.017 25.9574C321.019 25.8709 321.056 25.789 321.12 25.731C322.396 24.6521 324.264 24.6521 325.54 25.731C325.604 25.7891 325.641 25.871 325.643 25.9575Z" fill="black"/>
<path fill-rule="evenodd" clip-rule="evenodd" d="M309.667 17.6666H308.667C308.114 17.6666 307.667 18.1143 307.667 18.6666V27.3333C307.667 27.8856 308.114 28.3333 308.667 28.3333H309.667C310.219 28.3333 310.667 27.8856 310.667 27.3333V18.6666C310.667 18.1143 310.219 17.6666 309.667 17.6666ZM304 20H305C305.552 20 306 20.4477 306 21V27.3333C306 27.8856 305.552 28.3333 305 28.3333H304C303.448 28.3333 303 27.8856 303 27.3333V21C303 20.4477 303.448 20 304 20ZM300.333 22.3333H299.333C298.781 22.3333 298.333 22.781 298.333 23.3333V27.3333C298.333 27.8856 298.781 28.3333 299.333 28.3333H300.333C300.885 28.3333 301.333 27.8856 301.333 27.3333V23.3333C301.333 22.781 300.885 22.3333 300.333 22.3333ZM295.667 24.3333H294.667C294.114 24.3333 293.667 24.781 293.667 25.3333V27.3333C293.667 27.8856 294.114 28.3333 294.667 28.3333H295.667C296.219 28.3333 296.667 27.8856 296.667 27.3333V25.3333C296.667 24.781 296.219 24.3333 295.667 24.3333Z" fill="black"/>
<path d="M37.3208 28.2563C40.0088 28.2563 41.6055 26.1543 41.6055 22.5947C41.6055 21.2544 41.3491 20.1265 40.8584 19.2549C40.1479 17.8999 38.9248 17.1675 37.3794 17.1675C35.0796 17.1675 33.4536 18.7129 33.4536 20.8809C33.4536 22.917 34.9185 24.3965 36.9326 24.3965C38.1704 24.3965 39.1738 23.8179 39.6719 22.8145H39.6938C39.6938 22.8145 39.7231 22.8145 39.7305 22.8145C39.7451 22.8145 39.7964 22.8145 39.7964 22.8145C39.7964 25.2314 38.8809 26.6743 37.3354 26.6743C36.4272 26.6743 35.7241 26.1763 35.4824 25.3779H33.6001C33.915 27.1138 35.3872 28.2563 37.3208 28.2563ZM37.3867 22.895C36.1709 22.895 35.3066 22.0308 35.3066 20.8223C35.3066 19.6431 36.2148 18.7422 37.394 18.7422C38.5732 18.7422 39.4814 19.6577 39.4814 20.8516C39.4814 22.0308 38.5952 22.895 37.3867 22.895Z" fill="black"/>
<path d="M44.6966 28.1538C45.3924 28.1538 45.8685 27.6558 45.8685 26.9966C45.8685 26.3301 45.3924 25.8394 44.6966 25.8394C44.0081 25.8394 43.5247 26.3301 43.5247 26.9966C43.5247 27.6558 44.0081 28.1538 44.6966 28.1538ZM44.6966 22.6606C45.3924 22.6606 45.8685 22.1699 45.8685 21.5107C45.8685 20.8442 45.3924 20.3535 44.6966 20.3535C44.0081 20.3535 43.5247 20.8442 43.5247 21.5107C43.5247 22.1699 44.0081 22.6606 44.6966 22.6606Z" fill="black"/>
<path d="M52.7242 28H54.5333V26.0298H55.9615V24.4331H54.5333V17.4312H51.8673C49.9996 20.2437 48.5128 22.5947 47.5606 24.3452V26.0298H52.7242V28ZM49.3111 24.3672C50.5416 22.1992 51.6402 20.4634 52.651 18.9692H52.7535V24.4771H49.3111V24.3672Z" fill="black"/>
<path d="M59.9901 28H61.8798V17.4312H59.9975L57.2362 19.3647V21.1812L59.8656 19.3354H59.9901V28Z" fill="black"/>
<path d="M101.918 493.809H102.105L105.305 505H108.621L113.109 488.09H109.453L106.84 500.008H106.652L103.512 488.09H100.523L97.4414 500.008H97.2539L94.6172 488.09H90.9375L95.4141 505H98.7539L101.918 493.809ZM120.035 494.406C121.629 494.406 122.66 495.473 122.73 497.184H117.223C117.34 495.508 118.453 494.406 120.035 494.406ZM122.801 501.32C122.438 502.176 121.512 502.656 120.164 502.656C118.383 502.656 117.258 501.461 117.211 499.539V499.363H126.082V498.32C126.082 494.219 123.832 491.793 120.023 491.793C116.18 491.793 113.812 494.395 113.812 498.602C113.812 502.797 116.133 505.281 120.07 505.281C123.234 505.281 125.473 503.746 125.977 501.32H122.801ZM129 505H132.41V487.141H129V505ZM147.398 496.633C147.117 493.691 145.066 491.793 141.645 491.793C137.602 491.793 135.328 494.219 135.328 498.508C135.328 502.844 137.613 505.281 141.645 505.281C145.008 505.281 147.117 503.418 147.398 500.523H144.211C143.953 501.801 143.039 502.48 141.645 502.48C139.816 502.48 138.773 501.086 138.773 498.508C138.773 495.965 139.805 494.594 141.645 494.594C143.098 494.594 143.977 495.402 144.211 496.633H147.398ZM155.801 505.281C159.773 505.281 162.164 502.762 162.164 498.531C162.164 494.336 159.738 491.793 155.801 491.793C151.863 491.793 149.438 494.348 149.438 498.531C149.438 502.762 151.828 505.281 155.801 505.281ZM155.801 502.492C153.973 502.492 152.941 501.051 152.941 498.531C152.941 496.047 153.984 494.582 155.801 494.582C157.605 494.582 158.66 496.047 158.66 498.531C158.66 501.039 157.617 502.492 155.801 502.492ZM164.953 505H168.363V497.219C168.363 495.777 169.312 494.734 170.648 494.734C171.984 494.734 172.781 495.52 172.781 496.891V505H176.062V497.09C176.062 495.719 176.953 494.734 178.336 494.734C179.777 494.734 180.492 495.496 180.492 497.031V505H183.902V496.129C183.902 493.469 182.297 491.793 179.719 491.793C177.914 491.793 176.426 492.742 175.828 494.184H175.617C175.102 492.684 173.859 491.793 172.043 491.793C170.344 491.793 168.996 492.707 168.469 494.184H168.258V492.074H164.953V505ZM192.809 494.406C194.402 494.406 195.434 495.473 195.504 497.184H189.996C190.113 495.508 191.227 494.406 192.809 494.406ZM195.574 501.32C195.211 502.176 194.285 502.656 192.938 502.656C191.156 502.656 190.031 501.461 189.984 499.539V499.363H198.855V498.32C198.855 494.219 196.605 491.793 192.797 491.793C188.953 491.793 186.586 494.395 186.586 498.602C186.586 502.797 188.906 505.281 192.844 505.281C196.008 505.281 198.246 503.746 198.75 501.32H195.574ZM219.047 505H222.879L217.008 488.09H212.848L206.977 505H210.527L211.828 500.969H217.77L219.047 505ZM214.711 491.605H214.922L217.02 498.238H212.59L214.711 491.605ZM224.777 495.871C224.777 497.863 225.996 499.059 228.504 499.609L230.848 500.137C231.984 500.383 232.477 500.77 232.477 501.402C232.477 502.234 231.562 502.785 230.238 502.785C228.879 502.785 228.047 502.281 227.789 501.402H224.461C224.695 503.887 226.758 505.281 230.168 505.281C233.555 505.281 235.863 503.594 235.863 501.016C235.863 499.082 234.738 498.027 232.23 497.477L229.805 496.949C228.609 496.68 228.059 496.293 228.059 495.66C228.059 494.84 228.961 494.289 230.18 494.289C231.445 494.289 232.23 494.805 232.406 495.637H235.559C235.371 493.164 233.438 491.793 230.156 491.793C226.934 491.793 224.777 493.422 224.777 495.871ZM238.781 505H242.191V497.582C242.191 495.906 243.176 494.77 244.887 494.77C246.434 494.77 247.266 495.695 247.266 497.488V505H250.676V496.68C250.676 493.574 249.023 491.828 246.246 491.828C244.348 491.828 242.941 492.719 242.344 494.195H242.133V487.141H238.781V505ZM254.016 505H257.426V492.074H254.016V505ZM255.727 490.141C256.793 490.141 257.66 489.273 257.66 488.184C257.66 487.094 256.793 486.238 255.727 486.238C254.672 486.238 253.793 487.094 253.793 488.184C253.793 489.273 254.672 490.141 255.727 490.141ZM260.59 495.871C260.59 497.863 261.809 499.059 264.316 499.609L266.66 500.137C267.797 500.383 268.289 500.77 268.289 501.402C268.289 502.234 267.375 502.785 266.051 502.785C264.691 502.785 263.859 502.281 263.602 501.402H260.273C260.508 503.887 262.57 505.281 265.98 505.281C269.367 505.281 271.676 503.594 271.676 501.016C271.676 499.082 270.551 498.027 268.043 497.477L265.617 496.949C264.422 496.68 263.871 496.293 263.871 495.66C263.871 494.84 264.773 494.289 265.992 494.289C267.258 494.289 268.043 494.805 268.219 495.637H271.371C271.184 493.164 269.25 491.793 265.969 491.793C262.746 491.793 260.59 493.422 260.59 495.871ZM274.594 505H278.004V497.582C278.004 495.906 278.988 494.77 280.699 494.77C282.246 494.77 283.078 495.695 283.078 497.488V505H286.488V496.68C286.488 493.574 284.836 491.828 282.059 491.828C280.16 491.828 278.754 492.719 278.156 494.195H277.945V487.141H274.594V505Z" fill="black"/>
<path d="M21 741.5C21 732.683 21 728.274 22.7435 724.981C24.1505 722.324 26.3237 720.151 28.9811 718.744C32.274 717 36.616 717 45.3 717H332.7C341.384 717 345.726 717 349.019 718.744C351.676 720.151 353.849 722.324 355.256 724.981C357 728.274 357 732.683 357 741.5C357 750.317 357 754.726 355.256 758.019C353.849 760.676 351.676 762.849 349.019 764.256C345.726 766 341.384 766 332.7 766H45.3C36.616 766 32.274 766 28.9811 764.256C26.3237 762.849 24.1505 760.676 22.7435 758.019C21 754.726 21 750.317 21 741.5Z" fill="#F40029"/>
<path d="M116.947 748C119.654 748 121.307 746.62 121.307 744.396C121.307 742.744 120.129 741.514 118.424 741.355V741.197C119.698 740.995 120.683 739.817 120.683 738.481C120.683 736.53 119.232 735.317 116.824 735.317H111.524V748H116.947ZM113.792 737.119H116.271C117.642 737.119 118.441 737.77 118.441 738.886C118.441 740.028 117.589 740.652 115.98 740.652H113.792V737.119ZM113.792 746.198V742.287H116.341C118.072 742.287 118.986 742.955 118.986 744.221C118.986 745.513 118.099 746.198 116.429 746.198H113.792ZM127.582 739.923C128.892 739.923 129.753 740.837 129.797 742.261H125.271C125.367 740.854 126.281 739.923 127.582 739.923ZM129.814 745.354C129.498 746.066 128.751 746.462 127.67 746.462C126.237 746.462 125.314 745.46 125.262 743.86V743.746H131.977V743.043C131.977 740.011 130.333 738.191 127.591 738.191C124.805 738.191 123.073 740.134 123.073 743.228C123.073 746.321 124.778 748.193 127.608 748.193C129.876 748.193 131.484 747.104 131.88 745.354H129.814ZM138.296 746.084C136.775 746.084 135.914 744.924 135.914 743.087C135.914 741.25 136.775 740.081 138.296 740.081C139.808 740.081 140.73 741.25 140.73 743.087C140.73 744.924 139.816 746.084 138.296 746.084ZM138.296 751.656C141.1 751.656 142.875 750.259 142.875 748.035V738.385H140.774V739.923H140.625C140.098 738.877 138.955 738.227 137.646 738.227C135.193 738.227 133.673 740.143 133.673 743.087C133.673 745.979 135.185 747.859 137.61 747.859C138.946 747.859 139.992 747.297 140.546 746.269H140.695V748.088C140.695 749.292 139.825 749.995 138.331 749.995C137.136 749.995 136.362 749.573 136.222 748.914H134.033C134.209 750.566 135.826 751.656 138.296 751.656ZM145.582 748H147.753V738.385H145.582V748ZM146.663 736.794C147.384 736.794 147.964 736.214 147.964 735.484C147.964 734.755 147.384 734.166 146.663 734.166C145.951 734.166 145.362 734.755 145.362 735.484C145.362 736.214 145.951 736.794 146.663 736.794ZM150.46 748H152.64V742.401C152.64 740.986 153.457 740.09 154.758 740.09C156.085 740.09 156.7 740.828 156.7 742.296V748H158.88V741.777C158.88 739.483 157.711 738.191 155.566 738.191C154.134 738.191 153.167 738.851 152.71 739.923H152.561V738.385H150.46V748ZM179.587 748V735.317H176.933L173.118 744.616H172.96L169.146 735.317H166.491V748H168.601V739.079H168.724L172.23 747.561H173.848L177.354 739.079H177.478V748H179.587ZM183.542 751.489C185.695 751.489 186.724 750.698 187.541 748.308L191.013 738.385H188.71L186.469 745.891H186.319L184.069 738.385H181.679L185.115 748.044L185.001 748.466C184.72 749.354 184.201 749.705 183.278 749.705C183.129 749.705 182.804 749.696 182.681 749.67V751.454C182.821 751.48 183.41 751.489 183.542 751.489ZM197.051 744.546C197.051 746.84 198.686 748.316 201.111 748.316C203.66 748.316 205.198 746.822 205.198 744.212V735.317H202.931V744.194C202.931 745.557 202.271 746.277 201.085 746.277C200.004 746.277 199.283 745.592 199.266 744.546H197.051ZM212.106 748.193C214.98 748.193 216.729 746.312 216.729 743.192C216.729 740.081 214.972 738.191 212.106 738.191C209.25 738.191 207.483 740.09 207.483 743.192C207.483 746.312 209.224 748.193 212.106 748.193ZM212.106 746.365C210.586 746.365 209.716 745.205 209.716 743.192C209.716 741.188 210.586 740.02 212.106 740.02C213.618 740.02 214.488 741.188 214.488 743.192C214.488 745.205 213.627 746.365 212.106 746.365ZM227.294 738.385H225.114V743.983C225.114 745.407 224.341 746.277 222.926 746.277C221.625 746.277 221.019 745.557 221.019 744.089V738.385H218.839V744.634C218.839 746.884 220.069 748.193 222.17 748.193C223.638 748.193 224.578 747.569 225.044 746.471H225.193V748H227.294V738.385ZM229.966 748H232.146V742.445C232.146 741.101 233.13 740.222 234.545 740.222C234.914 740.222 235.494 740.283 235.661 740.345V738.323C235.459 738.262 235.072 738.227 234.756 738.227C233.517 738.227 232.479 738.93 232.216 739.879H232.066V738.385H229.966V748ZM237.577 748H239.757V742.401C239.757 740.986 240.574 740.09 241.875 740.09C243.202 740.09 243.817 740.828 243.817 742.296V748H245.997V741.777C245.997 739.483 244.828 738.191 242.684 738.191C241.251 738.191 240.284 738.851 239.827 739.923H239.678V738.385H237.577V748ZM252.615 739.923C253.925 739.923 254.786 740.837 254.83 742.261H250.304C250.4 740.854 251.314 739.923 252.615 739.923ZM254.848 745.354C254.531 746.066 253.784 746.462 252.703 746.462C251.271 746.462 250.348 745.46 250.295 743.86V743.746H257.01V743.043C257.01 740.011 255.366 738.191 252.624 738.191C249.838 738.191 248.106 740.134 248.106 743.228C248.106 746.321 249.812 748.193 252.642 748.193C254.909 748.193 256.518 747.104 256.913 745.354H254.848ZM260.024 751.489C262.178 751.489 263.206 750.698 264.023 748.308L267.495 738.385H265.192L262.951 745.891H262.802L260.552 738.385H258.161L261.598 748.044L261.483 748.466C261.202 749.354 260.684 749.705 259.761 749.705C259.611 749.705 259.286 749.696 259.163 749.67V751.454C259.304 751.48 259.893 751.489 260.024 751.489Z" fill="white"/>
<path d="M69.1562 540V535.148L73.1562 528.727H71.5547L68.5156 533.734H68.3906L65.3516 528.727H63.75L67.75 535.148V540H69.1562ZM77.1016 540.148C79.5 540.148 80.9844 538.492 80.9844 535.789C80.9844 533.078 79.5 531.43 77.1016 531.43C74.7031 531.43 73.2188 533.078 73.2188 535.789C73.2188 538.492 74.7031 540.148 77.1016 540.148ZM77.1016 538.938C75.5078 538.938 74.6094 537.781 74.6094 535.789C74.6094 533.789 75.5078 532.641 77.1016 532.641C78.6953 532.641 79.5938 533.789 79.5938 535.789C79.5938 537.781 78.6953 538.938 77.1016 538.938ZM89.9062 531.578H88.5625V536.562C88.5625 538.039 87.75 538.922 86.2656 538.922C84.9219 538.922 84.3594 538.219 84.3594 536.703V531.578H83.0156V537.031C83.0156 539.023 84 540.148 85.8906 540.148C87.1797 540.148 88.0781 539.617 88.5 538.68H88.625V540H89.9062V531.578ZM92.4375 540H93.7812V534.781C93.7812 533.594 94.7109 532.734 95.9922 532.734C96.2578 532.734 96.7422 532.781 96.8516 532.812V531.469C96.6797 531.445 96.3984 531.43 96.1797 531.43C95.0625 531.43 94.0938 532.008 93.8438 532.828H93.7188V531.578H92.4375V540ZM103.125 540H104.469V528.234H103.125V540ZM109.672 538.969C108.695 538.969 107.969 538.469 107.969 537.609C107.969 536.766 108.531 536.32 109.812 536.234L112.078 536.086V536.859C112.078 538.062 111.055 538.969 109.672 538.969ZM109.422 540.148C110.547 540.148 111.469 539.656 112.016 538.758H112.141V540H113.422V534.234C113.422 532.484 112.273 531.43 110.219 531.43C108.422 531.43 107.094 532.32 106.914 533.672H108.273C108.461 533.008 109.164 532.625 110.172 532.625C111.43 532.625 112.078 533.195 112.078 534.234V535L109.648 535.148C107.688 535.266 106.578 536.133 106.578 537.641C106.578 539.18 107.789 540.148 109.422 540.148ZM126.109 531.578H124.758L123.102 538.312H122.977L121.094 531.578H119.805L117.922 538.312H117.797L116.141 531.578H114.781L117.141 540H118.5L120.375 533.484H120.5L122.383 540H123.75L126.109 531.578ZM128.625 543.047C130.117 543.047 130.789 542.469 131.508 540.516L134.797 531.578H133.367L131.062 538.508H130.938L128.625 531.578H127.172L130.289 540.008L130.133 540.508C129.781 541.523 129.359 541.891 128.586 541.891C128.398 541.891 128.188 541.883 128.023 541.852V543C128.211 543.031 128.445 543.047 128.625 543.047ZM139.641 532.617C140.977 532.617 141.867 533.602 141.898 535.094H137.258C137.359 533.602 138.297 532.617 139.641 532.617ZM141.859 537.82C141.508 538.562 140.773 538.961 139.688 538.961C138.258 538.961 137.328 537.906 137.258 536.242V536.18H143.312V535.664C143.312 533.047 141.93 531.43 139.656 531.43C137.344 531.43 135.859 533.148 135.859 535.797C135.859 538.461 137.32 540.148 139.656 540.148C141.5 540.148 142.812 539.258 143.203 537.82H141.859ZM145.422 540H146.766V534.781C146.766 533.594 147.695 532.734 148.977 532.734C149.242 532.734 149.727 532.781 149.836 532.812V531.469C149.664 531.445 149.383 531.43 149.164 531.43C148.047 531.43 147.078 532.008 146.828 532.828H146.703V531.578H145.422V540ZM158.625 538.969C157.648 538.969 156.922 538.469 156.922 537.609C156.922 536.766 157.484 536.32 158.766 536.234L161.031 536.086V536.859C161.031 538.062 160.008 538.969 158.625 538.969ZM158.375 540.148C159.5 540.148 160.422 539.656 160.969 538.758H161.094V540H162.375V534.234C162.375 532.484 161.227 531.43 159.172 531.43C157.375 531.43 156.047 532.32 155.867 533.672H157.227C157.414 533.008 158.117 532.625 159.125 532.625C160.383 532.625 161.031 533.195 161.031 534.234V535L158.602 535.148C156.641 535.266 155.531 536.133 155.531 537.641C155.531 539.18 156.742 540.148 158.375 540.148ZM171.828 534.156C171.594 532.656 170.344 531.43 168.297 531.43C165.938 531.43 164.438 533.133 164.438 535.758C164.438 538.438 165.945 540.148 168.305 540.148C170.328 540.148 171.586 539.008 171.828 537.461H170.469C170.219 538.414 169.43 538.938 168.297 538.938C166.797 538.938 165.828 537.703 165.828 535.758C165.828 533.852 166.781 532.641 168.297 532.641C169.508 532.641 170.25 533.32 170.469 534.156H171.828ZM180.781 534.156C180.547 532.656 179.297 531.43 177.25 531.43C174.891 531.43 173.391 533.133 173.391 535.758C173.391 538.438 174.898 540.148 177.258 540.148C179.281 540.148 180.539 539.008 180.781 537.461H179.422C179.172 538.414 178.383 538.938 177.25 538.938C175.75 538.938 174.781 537.703 174.781 535.758C174.781 533.852 175.734 532.641 177.25 532.641C178.461 532.641 179.203 533.32 179.422 534.156H180.781ZM186.227 540.148C188.625 540.148 190.109 538.492 190.109 535.789C190.109 533.078 188.625 531.43 186.227 531.43C183.828 531.43 182.344 533.078 182.344 535.789C182.344 538.492 183.828 540.148 186.227 540.148ZM186.227 538.938C184.633 538.938 183.734 537.781 183.734 535.789C183.734 533.789 184.633 532.641 186.227 532.641C187.82 532.641 188.719 533.789 188.719 535.789C188.719 537.781 187.82 538.938 186.227 538.938ZM199.031 531.578H197.688V536.562C197.688 538.039 196.875 538.922 195.391 538.922C194.047 538.922 193.484 538.219 193.484 536.703V531.578H192.141V537.031C192.141 539.023 193.125 540.148 195.016 540.148C196.305 540.148 197.203 539.617 197.625 538.68H197.75V540H199.031V531.578ZM201.562 540H202.906V535.016C202.906 533.539 203.773 532.641 205.117 532.641C206.461 532.641 207.102 533.359 207.102 534.875V540H208.445V534.547C208.445 532.547 207.391 531.43 205.5 531.43C204.211 531.43 203.391 531.977 202.969 532.906H202.844V531.578H201.562V540ZM211.469 529.398V531.578H210.109V532.703H211.469V537.812C211.469 539.422 212.164 540.062 213.898 540.062C214.164 540.062 214.422 540.031 214.688 539.984V538.852C214.438 538.875 214.305 538.883 214.062 538.883C213.188 538.883 212.812 538.461 212.812 537.469V532.703H214.688V531.578H212.812V529.398H211.469ZM221.266 540H222.609V531.578H221.266V540ZM221.938 529.953C222.453 529.953 222.875 529.531 222.875 529.016C222.875 528.5 222.453 528.078 221.938 528.078C221.422 528.078 221 528.5 221 529.016C221 529.531 221.422 529.953 221.938 529.953ZM224.977 533.883C224.977 535.102 225.695 535.781 227.273 536.164L228.719 536.516C229.617 536.734 230.055 537.125 230.055 537.703C230.055 538.477 229.242 539.016 228.109 539.016C227.031 539.016 226.359 538.562 226.133 537.852H224.75C224.898 539.25 226.188 540.148 228.062 540.148C229.977 540.148 231.438 539.109 231.438 537.602C231.438 536.391 230.672 535.703 229.086 535.32L227.789 535.008C226.797 534.766 226.328 534.406 226.328 533.828C226.328 533.078 227.109 532.57 228.109 532.57C229.125 532.57 229.781 533.016 229.961 533.688H231.289C231.109 532.305 229.883 531.43 228.117 531.43C226.328 531.43 224.977 532.484 224.977 533.883ZM238.062 540H239.406V534.781C239.406 533.594 240.336 532.734 241.617 532.734C241.883 532.734 242.367 532.781 242.477 532.812V531.469C242.305 531.445 242.023 531.43 241.805 531.43C240.688 531.43 239.719 532.008 239.469 532.828H239.344V531.578H238.062V540ZM247.281 532.617C248.617 532.617 249.508 533.602 249.539 535.094H244.898C245 533.602 245.938 532.617 247.281 532.617ZM249.5 537.82C249.148 538.562 248.414 538.961 247.328 538.961C245.898 538.961 244.969 537.906 244.898 536.242V536.18H250.953V535.664C250.953 533.047 249.57 531.43 247.297 531.43C244.984 531.43 243.5 533.148 243.5 535.797C243.5 538.461 244.961 540.148 247.297 540.148C249.141 540.148 250.453 539.258 250.844 537.82H249.5ZM255.656 538.969C254.68 538.969 253.953 538.469 253.953 537.609C253.953 536.766 254.516 536.32 255.797 536.234L258.062 536.086V536.859C258.062 538.062 257.039 538.969 255.656 538.969ZM255.406 540.148C256.531 540.148 257.453 539.656 258 538.758H258.125V540H259.406V534.234C259.406 532.484 258.258 531.43 256.203 531.43C254.406 531.43 253.078 532.32 252.898 533.672H254.258C254.445 533.008 255.148 532.625 256.156 532.625C257.414 532.625 258.062 533.195 258.062 534.234V535L255.633 535.148C253.672 535.266 252.562 536.133 252.562 537.641C252.562 539.18 253.773 540.148 255.406 540.148ZM265.008 540.148C266.172 540.148 267.172 539.594 267.703 538.656H267.828V540H269.109V528.234H267.766V532.906H267.648C267.172 531.984 266.18 531.43 265.008 531.43C262.867 531.43 261.469 533.148 261.469 535.789C261.469 538.438 262.852 540.148 265.008 540.148ZM265.32 532.641C266.844 532.641 267.797 533.859 267.797 535.789C267.797 537.734 266.852 538.938 265.32 538.938C263.781 538.938 262.859 537.758 262.859 535.789C262.859 533.828 263.789 532.641 265.32 532.641ZM272.438 543.047C273.93 543.047 274.602 542.469 275.32 540.516L278.609 531.578H277.18L274.875 538.508H274.75L272.438 531.578H270.984L274.102 540.008L273.945 540.508C273.594 541.523 273.172 541.891 272.398 541.891C272.211 541.891 272 541.883 271.836 541.852V543C272.023 543.031 272.258 543.047 272.438 543.047ZM285.484 529.398V531.578H284.125V532.703H285.484V537.812C285.484 539.422 286.18 540.062 287.914 540.062C288.18 540.062 288.438 540.031 288.703 539.984V538.852C288.453 538.875 288.32 538.883 288.078 538.883C287.203 538.883 286.828 538.461 286.828 537.469V532.703H288.703V531.578H286.828V529.398H285.484ZM294.07 540.148C296.469 540.148 297.953 538.492 297.953 535.789C297.953 533.078 296.469 531.43 294.07 531.43C291.672 531.43 290.188 533.078 290.188 535.789C290.188 538.492 291.672 540.148 294.07 540.148ZM294.07 538.938C292.477 538.938 291.578 537.781 291.578 535.789C291.578 533.789 292.477 532.641 294.07 532.641C295.664 532.641 296.562 533.789 296.562 535.789C296.562 537.781 295.664 538.938 294.07 538.938ZM157.898 558.617C159.234 558.617 160.125 559.602 160.156 561.094H155.516C155.617 559.602 156.555 558.617 157.898 558.617ZM160.117 563.82C159.766 564.562 159.031 564.961 157.945 564.961C156.516 564.961 155.586 563.906 155.516 562.242V562.18H161.57V561.664C161.57 559.047 160.188 557.43 157.914 557.43C155.602 557.43 154.117 559.148 154.117 561.797C154.117 564.461 155.578 566.148 157.914 566.148C159.758 566.148 161.07 565.258 161.461 563.82H160.117ZM166.344 562.844L168.336 566.023H169.93L167.031 561.758L169.891 557.602H168.367L166.391 560.734H166.266L164.266 557.602H162.664L165.578 561.812L162.695 566.023H164.219L166.219 562.844H166.344ZM175.859 557.43C174.711 557.43 173.703 558.016 173.164 558.984H173.039V557.578H171.758V568.812H173.102V564.734H173.227C173.688 565.625 174.656 566.148 175.859 566.148C178 566.148 179.398 564.422 179.398 561.789C179.398 559.141 178.008 557.43 175.859 557.43ZM175.539 564.938C174.023 564.938 173.062 563.719 173.062 561.789C173.062 559.852 174.023 558.641 175.547 558.641C177.086 558.641 178.008 559.82 178.008 561.789C178.008 563.758 177.086 564.938 175.539 564.938ZM181.586 566H182.93V554.234H181.586V566ZM189 566.148C191.398 566.148 192.883 564.492 192.883 561.789C192.883 559.078 191.398 557.43 189 557.43C186.602 557.43 185.117 559.078 185.117 561.789C185.117 564.492 186.602 566.148 189 566.148ZM189 564.938C187.406 564.938 186.508 563.781 186.508 561.789C186.508 559.789 187.406 558.641 189 558.641C190.594 558.641 191.492 559.789 191.492 561.789C191.492 563.781 190.594 564.938 189 564.938ZM194.992 566H196.336V560.781C196.336 559.594 197.266 558.734 198.547 558.734C198.812 558.734 199.297 558.781 199.406 558.812V557.469C199.234 557.445 198.953 557.43 198.734 557.43C197.617 557.43 196.648 558.008 196.398 558.828H196.273V557.578H194.992V566ZM204.211 558.617C205.547 558.617 206.438 559.602 206.469 561.094H201.828C201.93 559.602 202.867 558.617 204.211 558.617ZM206.43 563.82C206.078 564.562 205.344 564.961 204.258 564.961C202.828 564.961 201.898 563.906 201.828 562.242V562.18H207.883V561.664C207.883 559.047 206.5 557.43 204.227 557.43C201.914 557.43 200.43 559.148 200.43 561.797C200.43 564.461 201.891 566.148 204.227 566.148C206.07 566.148 207.383 565.258 207.773 563.82H206.43Z" fill="black"/>
<g clip-path="url(#clip0)">
<ellipse cx="185.5" cy="374.5" rx="106.5" ry="107.5" fill="#EFF1F4"/>
<path d="M232.066 185.622C232.066 185.622 239.233 183.605 258.498 186.391C258.498 186.391 257.961 217.49 254.711 233.112C247.413 233.783 240.057 233.387 232.874 231.937C232.874 231.937 236.59 196.868 232.066 185.622Z" fill="white"/>
<path opacity="0.1" d="M232.066 185.622C232.066 185.622 239.233 183.605 258.498 186.391C258.498 186.391 257.961 217.49 254.711 233.112C247.413 233.783 240.057 233.387 232.874 231.937C232.874 231.937 236.59 196.868 232.066 185.622Z" fill="black"/>
<path d="M253.527 256.485L258.295 237.392C258.295 237.392 263.547 234.252 263.976 230.774C264.405 227.295 258.85 217.556 257.766 217.569C256.682 217.581 249.651 222.824 249.668 224.37C249.686 225.917 251.075 234.204 251.075 234.204L241.504 252.712L253.527 256.485Z" fill="#EFF1F4"/>
<path d="M256.504 249.366L259.25 242.96L245.711 235.111L241.504 242.243L256.504 249.366Z" fill="#E74C3C"/>
<path opacity="0.8" d="M256.504 249.366L259.25 242.96L245.711 235.111L241.504 242.243L256.504 249.366Z" fill="white"/>
<path d="M194.744 226.889C202.874 232.269 220.929 258.468 225.386 258.088C231.166 257.595 240.736 238.284 240.736 238.284L258.501 248.962C258.501 248.962 237.7 290.854 226.099 288.217C214.498 285.58 192.5 253.447 191.004 248.71C189.509 243.973 184.66 220.209 194.744 226.889Z" fill="black"/>
<path opacity="0.3" d="M194.744 226.889C202.874 232.269 220.929 258.468 225.386 258.088C231.166 257.595 240.736 238.284 240.736 238.284L258.501 248.962C258.501 248.962 237.7 290.854 226.099 288.217C214.498 285.58 192.5 253.447 191.004 248.71C189.509 243.973 184.66 220.209 194.744 226.889Z" fill="black"/>
<path d="M151.618 315.197H203.964C208.94 342.301 223.832 446.468 212.656 531.922L194.935 529.73C194.935 529.73 197.261 408.028 181.616 366.087C179.815 388.533 177.679 412.416 175.823 425.125C171.269 456.405 161.101 530.492 161.101 530.492H143.061C143.061 530.492 147.17 459.331 148.876 428.591C150.74 395.22 151.545 322.051 151.618 315.197Z" fill="black"/>
<g opacity="0.3">
<path opacity="0.3" d="M151.618 315.197H203.964C208.94 342.301 223.832 446.468 212.656 531.922L194.935 529.73C194.935 529.73 197.261 408.028 181.616 366.087C179.815 388.533 177.679 412.416 175.823 425.125C171.269 456.405 161.101 530.492 161.101 530.492H143.061C143.061 530.492 147.17 459.331 148.876 428.591C150.74 395.22 151.545 322.051 151.618 315.197Z" fill="black"/>
</g>
<path opacity="0.4" d="M206.072 327.804C206.072 327.804 190.641 331.367 179.889 327.804L180.855 319.465L205.887 319.511L206.072 327.804Z" fill="black"/>
<path opacity="0.1" d="M198.301 329.017C195.004 329.374 191.683 329.468 188.37 329.296V319.475L198.301 319.494V329.017Z" fill="white"/>
<path opacity="0.2" d="M181.619 366.094C184.195 373.447 186.151 381.001 187.466 388.678C188.93 368.703 183.075 347.515 183.075 347.515L181.619 366.094Z" fill="black"/>
<path d="M158.517 196.262C158.517 196.262 158.906 205.847 166.393 203.59C173.88 201.333 165.128 192.841 158.517 196.262Z" fill="black"/>
<path d="M180.855 220.209C179.3 218.993 178.142 217.343 177.528 215.469C176.915 213.595 176.874 211.581 177.41 209.684L163.861 198.783C163.861 198.783 165.618 212.17 162.346 219.248C162.346 219.248 170.518 227.506 176.756 225.629C182.993 223.752 180.855 220.209 180.855 220.209Z" fill="#EFF1F4"/>
<path opacity="0.2" d="M166.905 205.323L172.264 205.545L177.408 209.684C176.944 211.508 176.965 213.421 177.469 215.234C169.267 213.91 166.905 205.323 166.905 205.323Z" fill="black"/>
<path d="M167.252 229.863L178.477 225.626L187.893 226.319C187.893 226.319 197.855 248.976 201.546 272.354C203.885 288.627 205.146 305.036 205.321 321.474C204.979 321.399 191.509 324.344 179.042 320.115C179.042 320.115 187.347 285.07 182.864 269.033C178.38 252.996 167.378 229.863 167.378 229.863" fill="#E74C3C"/>
<path opacity="0.8" d="M167.252 229.863L178.477 225.626L187.893 226.319C187.893 226.319 197.855 248.976 201.546 272.354C203.885 288.627 205.146 305.036 205.321 321.474C204.979 321.399 191.509 324.344 179.042 320.115C179.042 320.115 187.347 285.07 182.864 269.033C178.38 252.996 167.378 229.863 167.378 229.863" fill="white"/>
<path opacity="0.4" d="M182.864 225.949L182.189 232.109C182.189 232.109 190.522 248.287 193.5 259.104C196.478 269.92 198.879 302.749 198.879 302.749L193.662 311.695L188.869 302.749C188.869 302.749 190.09 276.436 186.288 258.753C182.485 241.071 180.33 233.077 180.33 233.077L174.559 228.917L178.48 225.626L182.864 225.949Z" fill="black"/>
<path d="M180.855 220.209L176.994 224.031L162.344 219.249L173.259 235.357L178.671 226.707L187.478 229.197L180.855 220.209Z" fill="white"/>
<path d="M180.855 220.209C180.855 220.209 201.016 224.595 205.319 242.708C209.622 260.822 212.154 340.009 212.78 346.389C213.406 352.768 200.776 353.558 200.776 353.558C200.776 353.558 201.456 312.603 200.419 301.735C200.042 297.801 199.474 284.54 197.686 274.194C194.536 255.947 189.068 232.423 180.855 220.209Z" fill="black"/>
<path d="M185.03 221.666C187.77 224.074 194.301 229.198 197.598 234.576L192.507 237.257L199.47 241.679C199.47 241.679 198.891 261.179 197.193 271.409C193.978 253.612 188.662 231.812 180.855 220.209C180.855 220.209 182.518 220.668 185.03 221.666Z" fill="black"/>
<path opacity="0.1" d="M185.03 221.666C187.77 224.074 194.301 229.198 197.598 234.576L192.507 237.257L199.47 241.679C199.47 241.679 198.891 261.179 197.193 271.409C193.978 253.612 188.662 231.812 180.855 220.209C180.855 220.209 182.518 220.668 185.03 221.666Z" fill="white"/>
<path d="M196.296 178.219C196.296 178.219 197.004 185.575 191.24 187.213C191.24 187.213 187.964 178.997 191.943 178.219C195.922 177.44 196.296 178.219 196.296 178.219Z" fill="black"/>
<path d="M191.338 198.935C190.432 204.141 186.514 215.052 175.442 211.722C164.369 208.393 163.892 199.681 163.707 197.166C163.521 194.651 165.87 175.122 172.955 173.269C180.041 171.416 188.637 173.706 191.338 177.742C194.039 181.778 191.338 198.935 191.338 198.935Z" fill="#EFF1F4"/>
<path d="M164.345 190.865C164.167 191.099 171.674 195.568 171.437 180.092C171.437 180.092 176.862 182.395 178.119 176.252C178.119 176.252 200.826 184.068 198.568 175.26C195.547 163.491 177.179 162.607 169.268 168.76C169.268 168.76 165.337 164.381 161.634 169.104C157.211 174.753 157.282 190.078 157.282 190.078L164.345 190.865Z" fill="black"/>
<path d="M158.675 188.878C161.332 184.713 173.22 189.084 175.521 189.979L175.601 189.393C175.63 189.179 175.703 188.974 175.815 188.79C175.927 188.606 176.077 188.447 176.253 188.324C176.43 188.2 176.63 188.114 176.842 188.071C177.053 188.028 177.272 188.029 177.483 188.074L182.357 189.129C182.748 189.213 183.093 189.444 183.319 189.773C183.545 190.103 183.636 190.507 183.574 190.902C183.548 191.055 183.516 191.241 183.488 191.411C183.879 191.265 184.301 191.219 184.715 191.277C185.128 191.336 185.521 191.497 185.856 191.746L185.915 191.341C185.944 191.137 186.014 190.941 186.12 190.764C186.225 190.587 186.365 190.432 186.531 190.309C186.697 190.186 186.885 190.097 187.086 190.047C187.286 189.997 187.494 189.987 187.699 190.017L191.802 190.629C192.196 190.687 192.552 190.892 192.8 191.203C193.047 191.513 193.167 191.906 193.134 192.302C193.058 193.201 192.973 193.982 192.884 194.623C192.855 194.826 192.785 195.021 192.679 195.197C192.573 195.372 192.433 195.525 192.266 195.646C191.998 195.844 191.672 195.951 191.338 195.951C191.26 195.951 191.182 195.945 191.105 195.934L186.923 195.322C186.513 195.262 186.143 195.041 185.894 194.71C185.646 194.378 185.54 193.961 185.598 193.552L185.755 192.474C185.45 192.16 185.047 191.96 184.611 191.905C184.176 191.85 183.736 191.944 183.362 192.173C183.301 192.513 183.236 192.858 183.175 193.187C183.134 193.389 183.054 193.582 182.939 193.753C182.824 193.924 182.676 194.07 182.504 194.184C182.331 194.298 182.138 194.376 181.935 194.415C181.733 194.454 181.524 194.453 181.322 194.411L176.528 193.429C176.139 193.348 175.795 193.124 175.566 192.801C175.336 192.478 175.237 192.08 175.29 191.687L175.434 190.619C173.654 189.926 161.624 185.419 159.204 189.214C159.159 189.282 159.088 189.33 159.008 189.347C158.928 189.364 158.844 189.349 158.774 189.305C158.705 189.261 158.656 189.192 158.637 189.112C158.618 189.032 158.632 188.948 158.675 188.878ZM187.014 194.703L191.196 195.314C191.442 195.351 191.693 195.29 191.894 195.143C191.993 195.071 192.077 194.98 192.14 194.875C192.203 194.77 192.245 194.654 192.263 194.532C192.354 193.907 192.439 193.136 192.513 192.25C192.532 192.013 192.46 191.778 192.311 191.593C192.162 191.407 191.949 191.284 191.713 191.249L187.609 190.638C187.563 190.631 187.516 190.628 187.469 190.628C187.243 190.628 187.025 190.71 186.854 190.858C186.684 191.005 186.572 191.209 186.539 191.432L186.218 193.643C186.183 193.888 186.247 194.137 186.396 194.336C186.544 194.534 186.765 194.666 187.011 194.703H187.014ZM176.655 192.816L181.447 193.798C181.568 193.823 181.693 193.824 181.815 193.801C181.937 193.778 182.052 193.731 182.156 193.663C182.259 193.595 182.348 193.508 182.417 193.406C182.487 193.303 182.535 193.188 182.56 193.067C182.708 192.317 182.852 191.465 182.958 190.803C182.995 190.566 182.941 190.324 182.805 190.127C182.67 189.929 182.463 189.791 182.229 189.74L177.354 188.684C177.287 188.671 177.219 188.663 177.152 188.663C176.924 188.664 176.705 188.747 176.534 188.897C176.363 189.047 176.252 189.253 176.222 189.478L175.911 191.771C175.88 192.006 175.939 192.245 176.076 192.438C176.214 192.632 176.419 192.767 176.652 192.816H176.655Z" fill="black"/>
<path d="M178.557 190.954C178.37 191.72 178.724 192.437 179.244 192.524C179.765 192.612 180.279 192.041 180.417 191.263C180.555 190.485 180.238 189.778 179.73 189.693C179.222 189.608 178.697 190.163 178.557 190.954Z" fill="black"/>
<path d="M188.295 192.463C188.108 193.229 188.474 193.948 188.982 194.033C189.49 194.118 190.017 193.55 190.155 192.773C190.293 191.996 189.976 191.287 189.466 191.202C188.957 191.117 188.424 191.721 188.295 192.463Z" fill="black"/>
<path d="M184.539 192.368C185.063 194.918 185.937 197.384 187.138 199.696C186.534 199.988 185.872 200.145 185.2 200.156C184.528 200.166 183.863 200.03 183.249 199.756L184.539 192.368Z" fill="#B3BECD"/>
<path d="M176.851 186.307C176.905 186.374 176.975 186.425 177.055 186.455C177.135 186.486 177.221 186.495 177.306 186.482C177.881 186.368 178.474 186.39 179.038 186.545C179.603 186.699 180.124 186.984 180.559 187.375C180.599 187.425 180.648 187.467 180.705 187.497C180.761 187.528 180.823 187.546 180.887 187.552C180.951 187.557 181.016 187.549 181.077 187.528C181.137 187.507 181.193 187.474 181.24 187.43C181.287 187.387 181.325 187.334 181.351 187.276C181.377 187.217 181.39 187.154 181.39 187.089C181.39 187.025 181.376 186.962 181.35 186.903C181.324 186.845 181.286 186.792 181.239 186.749C180.702 186.241 180.051 185.87 179.34 185.665C178.629 185.46 177.879 185.428 177.153 185.572C177.093 185.58 177.035 185.601 176.982 185.632C176.93 185.663 176.884 185.704 176.848 185.752C176.811 185.801 176.785 185.857 176.77 185.915C176.755 185.974 176.751 186.036 176.76 186.096V186.107C176.78 186.178 176.81 186.246 176.851 186.307Z" fill="black"/>
<path d="M181.283 203.588C180.132 203.567 179.003 203.269 177.992 202.72C176.981 202.171 176.117 201.387 175.475 200.434C175.443 200.378 175.434 200.311 175.45 200.248C175.467 200.185 175.507 200.131 175.562 200.098C175.589 200.081 175.618 200.069 175.649 200.063C175.68 200.058 175.712 200.058 175.742 200.065C175.773 200.072 175.802 200.084 175.828 200.102C175.853 200.12 175.875 200.143 175.892 200.169L175.901 200.185C176.515 201.054 177.323 201.769 178.261 202.273C179.2 202.776 180.243 203.055 181.308 203.087C181.34 203.087 181.371 203.093 181.4 203.104C181.429 203.116 181.455 203.134 181.478 203.156C181.5 203.178 181.518 203.204 181.53 203.233C181.542 203.262 181.548 203.293 181.548 203.324V203.351C181.548 203.382 181.542 203.413 181.53 203.442C181.518 203.471 181.501 203.497 181.479 203.519C181.457 203.541 181.431 203.559 181.402 203.571C181.373 203.583 181.342 203.59 181.311 203.59L181.283 203.588Z" fill="black"/>
<path d="M191.648 187.709C191.737 187.676 191.813 187.616 191.865 187.537C191.912 187.424 191.912 187.297 191.865 187.183C191.818 187.07 191.728 186.98 191.614 186.933H191.606C190.922 186.643 190.179 186.521 189.439 186.578C188.699 186.635 187.983 186.868 187.353 187.258C187.303 187.293 187.26 187.338 187.228 187.389C187.195 187.441 187.173 187.498 187.163 187.558C187.152 187.618 187.154 187.679 187.167 187.739C187.181 187.798 187.206 187.854 187.241 187.904C187.314 188.002 187.422 188.068 187.543 188.089C187.664 188.11 187.788 188.083 187.89 188.015C188.397 187.721 188.966 187.55 189.551 187.514C190.137 187.478 190.723 187.58 191.262 187.81C191.33 187.822 191.399 187.819 191.466 187.802C191.533 187.784 191.595 187.752 191.648 187.709Z" fill="black"/>
<path d="M162.344 219.248C162.344 219.248 148.921 227.051 141.997 229.982C135.073 232.912 145.584 280.564 145.837 288.761C146.091 296.959 138.617 353.446 138.617 353.446C138.617 353.446 159.997 358.992 177.416 354.858C177.416 354.858 189.762 307.889 188.239 283.274C186.777 259.589 179.651 236.262 162.344 219.248Z" fill="black"/>
<path d="M156.853 222.385C160.031 220.608 162.344 219.242 162.344 219.242C179.082 235.698 186.279 258.059 188.062 280.932C180.804 263.276 163.914 247.1 163.914 247.1L169.126 239.483L159.559 238.732C159.37 233.189 158.46 227.694 156.853 222.385Z" fill="black"/>
<path opacity="0.1" d="M156.853 222.385C160.031 220.608 162.344 219.242 162.344 219.242C179.082 235.698 186.279 258.059 188.062 280.932C180.804 263.276 163.914 247.1 163.914 247.1L169.126 239.483L159.559 238.732C159.37 233.189 158.46 227.694 156.853 222.385Z" fill="white"/>
<path d="M162.586 250.422C162.591 250.367 162.607 250.314 162.633 250.266C162.659 250.217 162.694 250.174 162.737 250.139C162.779 250.104 162.829 250.078 162.881 250.062C162.934 250.046 162.989 250.041 163.044 250.047L193.197 252.579V254.687H196.369L192.328 303.262C192.309 303.486 192.17 303.489 192.156 303.656L191.827 303.629L191.564 303.253L190.56 303.17L190.23 303.495L158.813 300.856C158.758 300.853 158.705 300.839 158.655 300.814C158.606 300.79 158.562 300.757 158.526 300.716C158.49 300.675 158.463 300.627 158.445 300.575C158.427 300.524 158.42 300.469 158.424 300.415L162.586 250.422Z" fill="#E74C3C"/>
<path d="M195.162 299.957C195.114 300.81 194.799 301.628 194.261 302.293C193.722 302.959 192.988 303.439 192.161 303.665C192.377 301.1 192.674 298.652 192.674 298.652C192.674 298.652 195.419 261.392 196.133 252.839C196.882 252.991 197.558 253.388 198.055 253.968C198.551 254.547 198.838 255.276 198.872 256.037C198.774 257.196 198.574 259.554 198.574 259.554L195.162 299.957Z" fill="#E74C3C"/>
<path opacity="0.2" d="M195.162 299.957C195.114 300.81 194.799 301.628 194.261 302.293C193.722 302.959 192.988 303.439 192.161 303.665C192.377 301.1 192.674 298.652 192.674 298.652C192.674 298.652 195.419 261.392 196.133 252.839C196.882 252.991 197.558 253.388 198.055 253.968C198.551 254.547 198.838 255.276 198.872 256.037C198.774 257.196 198.574 259.554 198.574 259.554L195.162 299.957Z" fill="black"/>
<path d="M192.146 302.584L159.678 299.957L161.56 294.403L192.619 297.011C193.135 297.281 193.547 297.714 193.79 298.242C194.034 298.769 194.095 299.363 193.964 299.929C193.93 300.494 193.743 301.04 193.423 301.507C193.103 301.975 192.662 302.347 192.146 302.584Z" fill="#E74C3C"/>
<path opacity="0.6" d="M192.146 302.584L159.678 299.957L161.56 294.403L192.619 297.011C193.135 297.281 193.547 297.714 193.79 298.242C194.034 298.769 194.095 299.363 193.964 299.929C193.93 300.494 193.743 301.04 193.423 301.507C193.103 301.975 192.662 302.347 192.146 302.584Z" fill="white"/>
<path d="M160.254 294.473L190.916 297.049L191.152 296.894L192.099 296.973L192.308 297.165L192.71 297.199C192.721 297.2 192.732 297.199 192.742 297.196C192.752 297.193 192.762 297.187 192.77 297.181C192.778 297.174 192.785 297.165 192.79 297.156C192.794 297.146 192.797 297.136 192.798 297.125L196.528 252.952C196.529 252.941 196.528 252.93 196.525 252.92C196.522 252.91 196.516 252.901 196.509 252.892C196.503 252.884 196.494 252.878 196.485 252.873C196.475 252.868 196.465 252.865 196.454 252.864L195.996 252.825L195.799 253.163L194.851 253.087L194.619 252.712L163.993 250.139C163.982 250.138 163.971 250.139 163.961 250.142C163.951 250.146 163.941 250.151 163.933 250.158C163.925 250.164 163.918 250.173 163.913 250.182C163.908 250.192 163.906 250.202 163.905 250.213L160.175 294.386C160.174 294.397 160.176 294.408 160.179 294.419C160.183 294.429 160.188 294.439 160.196 294.447C160.203 294.455 160.212 294.461 160.222 294.466C160.232 294.47 160.243 294.473 160.254 294.473Z" fill="#E74C3C"/>
<path opacity="0.3" d="M167.282 275.215L188.819 277.024L190.347 258.926L168.81 257.118L167.282 275.215ZM187.803 275.677L168.509 274.056L169.825 258.464L189.12 260.091L187.803 275.677Z" fill="black"/>
<path opacity="0.3" d="M198.31 262.685C198.164 262.062 197.876 261.481 197.466 260.989C197.057 260.498 196.538 260.108 195.951 259.851C195.922 260.19 195.891 260.337 195.833 261.254C196.983 262.019 197.81 263.18 198.155 264.515L198.31 262.685Z" fill="black"/>
<path opacity="0.3" d="M195.982 290.245C195.837 289.622 195.548 289.042 195.139 288.55C194.729 288.058 194.211 287.668 193.624 287.411C193.595 287.75 193.564 287.899 193.498 288.816C194.648 289.578 195.475 290.737 195.821 292.069L195.982 290.245Z" fill="black"/>
<path opacity="0.3" d="M194.857 253.086L195.804 253.166L192.104 296.973L191.157 296.893L194.857 253.086Z" fill="black"/>
<path d="M169.998 280.632L185.108 281.901L184.932 283.979L169.822 282.71L169.998 280.632Z" fill="#E74C3C"/>
<path d="M172.949 285.454L181.395 286.164L181.219 288.241L172.773 287.531L172.949 285.454Z" fill="#E74C3C"/>
<path opacity="0.3" d="M192.197 299.446L163.168 297.008C163.168 297.008 172.005 297.581 182.946 298.499C187.592 298.889 192.197 299.446 192.197 299.446Z" fill="black"/>
<path opacity="0.3" d="M192.102 300.574L163.005 297.867L182.859 299.535C187.504 299.924 192.102 300.574 192.102 300.574Z" fill="black"/>
<path opacity="0.3" d="M192.017 301.583L162.772 298.866L182.774 300.545C187.419 300.929 192.017 301.583 192.017 301.583Z" fill="black"/>
<path d="M186.256 297.855L185.776 303.545L187.822 301.637L189.519 303.86C189.519 303.86 189.645 302.455 190.006 298.105C188.877 297.984 187.164 297.931 186.256 297.855Z" fill="#E74C3C"/>
<path opacity="0.3" d="M186.256 297.855L185.776 303.545L187.822 301.637L189.519 303.86C189.519 303.86 189.645 302.455 190.006 298.105C188.877 297.984 187.164 297.931 186.256 297.855Z" fill="black"/>
<path opacity="0.3" d="M192.289 298.361L162.918 296.064C162.918 296.064 172.097 296.497 183.038 297.416C187.682 297.806 192.289 298.361 192.289 298.361Z" fill="black"/>
<path d="M160.173 294.465L161.885 294.609C162.273 295.47 162.311 296.449 161.989 297.337C161.316 299.62 159.717 299.864 159.717 299.864L160.173 294.465Z" fill="#E74C3C"/>
<path d="M168.767 297.329L186.676 289.072C186.676 289.072 192.421 291.189 195.409 289.344C198.398 287.5 202.53 277.083 201.843 276.246C201.155 275.409 192.649 273.229 191.452 274.209C190.256 275.189 184.647 281.466 184.647 281.466L164.185 285.616L168.767 297.329Z" fill="#EFF1F4"/>
<path d="M173.763 279.948L180.942 279.52L180.189 295.62L172.562 296.905L173.763 279.948Z" fill="white"/>
<path d="M173.763 279.948L180.942 279.52L180.189 295.62L172.562 296.905L173.763 279.948Z" fill="#E74C3C"/>
<path opacity="0.8" d="M173.763 279.948L180.942 279.52L180.189 295.62L172.562 296.905L173.763 279.948Z" fill="white"/>
<path d="M146.905 228.368C134.928 229.644 130.109 247.647 128.439 256.655C126.808 265.437 122.372 292.798 132.47 300.196C142.568 307.594 174.583 299.479 174.583 299.479L176.288 277.521C176.288 277.521 159.092 281.399 151.657 278.511C145.435 276.098 148.316 253.781 148.967 249.783C149.893 244.084 152.535 227.765 146.905 228.368Z" fill="black"/>
<path opacity="0.3" d="M146.905 228.368C134.928 229.644 130.109 247.647 128.439 256.655C126.808 265.437 122.372 292.798 132.47 300.196C142.568 307.594 174.583 299.479 174.583 299.479L176.288 277.521C176.288 277.521 159.092 281.399 151.657 278.511C145.435 276.098 148.316 253.781 148.967 249.783C149.893 244.084 152.535 227.765 146.905 228.368Z" fill="black"/>
<path d="M166.698 192.063C166.698 192.063 164.722 186.603 159.658 186.579C155.587 186.56 155 191.64 156.853 195.148C158.275 197.838 162.924 201.202 165.886 197.679C168.848 194.156 166.698 192.063 166.698 192.063Z" fill="#EFF1F4"/>
</g>
<defs>
<clipPath id="clip0">
<rect width="232" height="269" fill="white" transform="matrix(-1 0 0 1 305 165)"/>
</clipPath>
</defs>
</svg>
